<?xml version="1.0" ?><svg data-name="Layer 2" id="Layer_2" viewBox="0 0 2010 2010" xmlns="http://www.w3.org/2000/svg" xmlns:xlink="http://www.w3.org/1999/xlink"><defs><style>.cls-1{fill:#c5e8ff;}.cls-2{fill:url(#linear-gradient);}.cls-3{fill:url(#linear-gradient-2);}</style><linearGradient gradientUnits="userSpaceOnUse" id="linear-gradient" x1="569.58" x2="1692.99" y1="1920.52" y2="409.12"><stop offset="0" stop-color="#69bbff"/><stop offset="1" stop-color="#1798ff"/></linearGradient><linearGradient id="linear-gradient-2" x1="1506.74" x2="558.65" xlink:href="#linear-gradient" y1="49.36" y2="2026.23"/></defs><path class="cls-1" d="M1005,305.62a149.94,149.94,0,0,0-150,150v675.83a75,75,0,0,1-28.48,58.83,289.64,289.64,0,0,0-57,60.33A286,286,0,0,0,717,1416.34c0,158.83,129.21,288,288,288s288-129.21,288-288a286,286,0,0,0-52.55-165.73,289.64,289.64,0,0,0-57-60.33,75,75,0,0,1-28.48-58.83V455.62a149.94,149.94,0,0,0-150-150Z"/><path class="cls-2" d="M1079.9,1216.9c.06-1.31.1-2.62.1-4V1021.83a75,75,0,1,0-150,0V1213c0,1.33,0,2.64.1,4C849.47,1247.28,792,1325.21,792,1416.34c0,117.47,95.57,213,213,213s213-95.57,213-213C1218,1325.21,1160.53,1247.28,1079.9,1216.9ZM1005,1479.38a63,63,0,1,1,63-63A63.11,63.11,0,0,1,1005,1479.38Z"/><path class="cls-3" d="M1005,1854.38c-241.54,0-438-196.5-438-438a435.21,435.21,0,0,1,80-252.2A441.34,441.34,0,0,1,705,1097.21V455.62a300,300,0,1,1,600,0v641.59a441.82,441.82,0,0,1,58.06,66.93,435.21,435.21,0,0,1,80,252.2C1443,1657.88,1246.54,1854.38,1005,1854.38Zm0-1548.76a149.94,149.94,0,0,0-150,150v675.83a75,75,0,0,1-28.48,58.83,289.64,289.64,0,0,0-57,60.33A286,286,0,0,0,717,1416.34c0,158.83,129.21,288,288,288s288-129.21,288-288a286,286,0,0,0-52.55-165.73,289.64,289.64,0,0,0-57-60.33,75,75,0,0,1-28.48-58.83V455.62a149.94,149.94,0,0,0-150-150Z"/></svg>